<svg width="482" height="172" viewBox="0 0 482 172" fill="none" xmlns="http://www.w3.org/2000/svg">
<g clip-path="url(#clip0_5163_48921)">
<g clip-path="url(#clip1_5163_48921)">
<path d="M220.881 14.3549C216.886 20.1998 213.014 26.2279 209.597 32.6253C216.674 26.1868 223.128 18.7334 229.391 11.1326C231.208 8.91885 233.72 5.69479 235.507 3.39377C236.443 2.19742 236.412 0.253555 235.438 -0.935715C234.593 -1.96421 233.323 -2.09225 232.397 -1.33833C230.011 0.576794 227.644 2.49122 225.306 4.49292C219.438 9.48148 213.704 14.719 208.28 20.442C207.192 21.5891 206.114 22.7687 205.064 24.0025C206.41 23.343 207.718 22.6186 209.016 21.8725C213.049 19.5515 217.003 17.0236 220.881 14.3549ZM200.327 -7.89761C197.449 -4.07378 194.468 -0.378632 191.33 3.12365C190.38 4.17688 189.411 5.21975 188.397 6.22018C188.988 4.78292 189.616 3.39948 190.271 2.02605C194.805 -7.4976 200.107 -16.3877 205.732 -24.9255C207.541 -27.5699 210.941 -24.9708 209.881 -21.7142C205.915 -10.2784 201.573 1.05036 195.955 11.3781C197.057 4.82661 198.571 -1.57506 200.328 -7.88656L200.327 -7.89761ZM178.126 2.94571C176.506 -4.68382 175.41 -12.4882 174.509 -20.2891C173.509 -14.5261 172.367 -8.80171 171.026 -3.16928C170.607 -1.42914 170.178 0.311337 169.679 2.04349C169.599 -1.63357 169.698 -5.27327 169.841 -8.9257C170.21 -17.9799 170.995 -27.017 172.004 -35.9742L172.647 -41.3367C172.807 -42.7132 173.712 -43.7979 174.876 -43.8868C176.225 -43.9939 177.407 -42.7131 177.507 -41.0261C177.71 -37.7959 178.008 -33.2652 178.14 -30.0764C178.615 -19.0875 178.855 -8.0121 178.117 2.94605L178.126 2.94571ZM143.034 -35.7565C149.864 -22.3815 156.525 -8.77889 162.313 5.34345C156.485 -3.14116 151.038 -12.0714 145.755 -21.1185C148.283 -13.347 150.689 -5.51555 152.893 2.35676C153.59 4.83866 154.252 7.33295 154.879 9.85066C152.663 5.36051 150.603 0.775978 148.577 -3.84303C143.562 -15.3428 138.89 -27.1319 134.445 -38.9741L131.809 -46.1115C131.306 -47.4625 131.651 -49.0892 132.671 -49.9241C133.795 -50.8404 135.314 -50.4346 136.068 -49.0158C138.137 -45.1168 141.044 -39.6586 143.025 -35.7562L143.034 -35.7565ZM107.38 -18.8818C104.261 -22.2542 98.045 -29.0773 94.9588 -32.5062C94.0353 -33.5206 93.8363 -35.248 94.5303 -36.5235C95.282 -37.9117 96.8083 -38.2466 97.9243 -37.2838C104.446 -31.6992 111.593 -25.5087 117.97 -19.7638C129.011 -9.82169 139.961 0.300663 150.461 11.1365C140.338 4.12101 130.484 -3.4685 120.721 -11.2384C127.364 -3.40391 133.889 4.56768 140.224 12.657C142.158 15.1245 144.059 17.6265 145.943 20.1622C141.479 16.09 137.131 11.8364 132.8 7.54915C124.21 -1.00616 115.694 -9.91798 107.38 -18.8818ZM61.4016 -2.26248L50.1879 -7.7221C49.007 -8.2956 48.3433 -9.91677 48.6827 -11.4439C49.0452 -13.0603 50.3989 -13.9743 51.7088 -13.4941C64.7473 -8.65713 79.6757 -2.97552 92.5923 2.1424C110.029 9.087 127.544 16.2495 144.741 24.1095C127.846 19.266 110.95 13.7263 94.1882 7.99357C107.954 15.1786 121.648 22.5764 135.195 30.2782C137.022 31.3353 138.849 32.3702 140.669 33.4607C137.391 32.1721 132.509 30.1162 129.227 28.7393C106.432 19.0829 83.8618 8.58919 61.4024 -2.2404L61.4016 -2.26248ZM139.875 48.0238C121.504 46.906 103.17 45.1459 84.8382 43.2198C71.6938 41.846 56.8359 40.0739 43.6461 38.4366L29.9296 36.6759C28.6673 36.5144 27.6777 35.1599 27.6864 33.5461C27.7011 31.8546 28.809 30.5301 30.1642 30.5775C66.8169 31.8661 103.903 33.5911 140.468 37.2148C120.742 37.8842 100.879 37.9952 81.0204 37.7855C91.5915 39.4129 102.14 41.1185 112.549 42.9179C121.66 44.535 130.78 46.1297 139.883 48.0014L139.875 48.0238ZM140.893 62.7825C119.428 68.6243 97.8671 73.8289 76.2655 78.8804C60.7745 82.5035 43.2238 86.3938 27.6263 89.7778L11.3861 93.2419C10.1227 93.5114 8.87198 92.4985 8.55479 90.9193C8.22623 89.2742 9.02993 87.6299 10.3421 87.2479C52.9818 74.9122 96.1894 62.853 139.219 52.8232C117.46 60.4667 95.4539 67.6555 73.3836 74.5484C85.0362 72.3215 96.6745 70.1836 108.185 68.1611C119.073 66.2841 129.969 64.3957 140.893 62.7825ZM146.189 77.4652C122.79 91.891 99.1637 105.739 75.4883 119.435C58.5018 129.26 39.2131 140.18 22.0603 149.823L4.19523 159.804C3.02615 160.457 1.61399 159.848 1.00073 158.39C0.368115 156.89 0.819295 155.049 2.01947 154.284C48.2165 124.716 95.3721 94.9997 142.385 67.5546C117.943 84.7612 93.0343 101.609 68.0183 118.175C81.9807 110.676 95.9895 103.242 109.943 95.9762C122.008 89.7328 134.054 83.4681 146.207 77.4645L146.189 77.4652ZM18.7558 222.226C62.0988 174.775 106.44 126.822 150.996 81.237C129.931 106.005 108.408 130.614 86.7177 155.009C97.7503 144.241 108.795 133.55 119.665 123.142C130.987 112.33 142.31 101.507 153.764 90.9C132.181 114.163 110.279 136.941 88.2913 159.59C67.3248 181.172 43.1775 205.617 21.9349 226.923C19.3544 229.287 16.4694 224.878 18.7466 222.216L18.7558 222.226Z" fill="url(#paint0_radial_5163_48921)"/>
</g>
<g clip-path="url(#clip2_5163_48921)">
<mask id="mask0_5163_48921" style="mask-type:alpha" maskUnits="userSpaceOnUse" x="0" y="92" width="495" height="80">
<path d="M495 92H0V172H495V92Z" fill="#D9D9D9"/>
</mask>
<g mask="url(#mask0_5163_48921)">
<path d="M298.45 72.93C292.524 79.7994 286.791 86.8642 281.768 94.3059C292.388 86.5238 302.024 77.6546 311.362 68.6358C314.071 66.0096 317.811 62.1957 320.472 59.4741C321.865 58.0586 321.758 55.8833 320.23 54.6293C318.906 53.5449 316.96 53.5036 315.567 54.4227C311.979 56.76 308.418 59.0951 304.905 61.5257C296.089 67.5862 287.484 73.915 279.37 80.7626C277.742 82.1351 276.13 83.5434 274.564 85.0101C276.601 84.163 278.578 83.2463 280.54 82.3061C286.635 79.3816 292.603 76.2316 298.45 72.93ZM266.314 49.6524C262.033 54.1677 257.591 58.5471 252.902 62.7231C251.481 63.9794 250.033 65.2256 248.514 66.428C249.372 64.7703 250.288 63.1699 251.247 61.5786C257.882 50.5444 265.711 40.1585 274.045 30.1412C276.728 27.0331 282.009 29.6716 280.49 33.4054C274.785 46.536 268.502 59.5768 260.235 71.599C261.713 64.1705 263.828 56.8769 266.315 49.6647L266.314 49.6524ZM232.701 63.5853C229.984 55.168 228.062 46.5127 226.438 37.8457C225.091 44.3824 223.525 50.8873 221.652 57.3053C221.065 59.2885 220.464 61.2729 219.755 63.2536C219.518 59.1405 219.555 55.0549 219.658 50.9515C219.937 40.7782 220.853 30.5907 222.114 20.4746L222.929 14.4151C223.129 12.8602 224.479 11.5723 226.257 11.3791C228.317 11.1506 230.164 12.4905 230.37 14.3725C230.784 17.975 231.382 23.0269 231.683 26.5888C232.756 38.8617 233.471 51.2504 232.688 63.5864L232.701 63.5853ZM177.816 23.0475C188.682 37.4828 199.298 52.1865 208.594 67.5428C199.414 58.5058 190.803 48.9389 182.437 39.2281C186.548 47.7314 190.474 56.3117 194.093 64.954C195.237 67.6785 196.328 70.4197 197.367 73.1899C193.837 68.3377 190.541 63.3671 187.297 58.3553C179.265 45.875 171.749 33.043 164.579 20.1333L160.323 12.349C159.511 10.8759 159.986 9.02574 161.521 8.00834C163.21 6.89154 165.547 7.22404 166.744 8.75294C170.031 12.9547 174.65 18.8359 177.802 23.0486L177.816 23.0475ZM123.819 44.819C118.942 41.2916 109.222 34.1472 104.394 30.5538C102.95 29.4916 102.591 27.5724 103.612 26.0876C104.718 24.472 107.042 23.9741 108.779 24.963C118.929 30.6952 130.053 37.0561 139.987 42.9795C157.185 53.2302 174.251 63.6902 190.651 74.9857C174.948 67.9399 159.639 60.2294 144.463 52.3096C154.869 60.5526 165.099 68.9588 175.042 77.5123C178.078 80.1211 181.064 82.7714 184.025 85.4607C177.07 81.2574 170.287 76.8415 163.528 72.3865C150.121 63.4924 136.817 54.1929 123.819 44.819ZM54.0254 67.1344L36.7037 61.9193C34.8797 61.3717 33.8135 59.6089 34.2845 57.8708C34.788 56.0308 36.8294 54.898 38.8479 55.3306C58.9407 59.7013 81.9507 64.8664 101.866 69.5617C128.751 75.9401 155.764 82.5564 182.312 89.9796C156.32 85.9116 130.306 81.0636 104.491 75.9886C125.77 82.9315 146.946 90.1185 167.906 97.658C170.734 98.6953 173.56 99.7079 176.378 100.783C171.324 99.6032 163.793 97.6924 158.731 96.4136C123.565 87.428 88.7167 77.4861 54.0273 67.159L54.0254 67.1344ZM175.622 117.162C147.491 117.387 119.397 116.889 91.3007 116.205C71.1551 115.723 48.3761 114.932 28.1526 114.158L7.11987 113.288C5.18431 113.209 3.62808 111.771 3.59067 109.962C3.55979 108.066 5.21246 106.493 7.28654 106.437C63.3822 104.934 120.153 103.885 176.189 105.005C146.041 107.341 115.667 109.062 85.2908 110.424C101.509 111.397 117.694 112.46 133.671 113.639C147.656 114.718 161.653 115.772 175.634 117.137L175.622 117.162ZM177.644 133.615C145 141.886 112.191 149.45 79.3131 156.846C55.7359 162.15 29.0171 167.919 5.26953 172.965L-19.4584 178.151C-21.3822 178.555 -23.3269 177.52 -23.8617 175.777C-24.416 173.96 -23.2387 172.053 -21.2439 171.52C43.579 154.272 109.279 137.288 174.77 122.592C141.734 132.905 108.306 142.728 74.769 152.224C92.5199 148.793 110.252 145.462 127.791 142.27C144.383 139.292 160.988 136.301 177.644 133.615ZM186.207 149.639C150.874 167.681 115.179 185.096 79.4014 202.343C53.7323 214.716 24.577 228.5 -1.35191 240.683L-28.3598 253.3C-30.1272 254.126 -32.306 253.557 -33.2898 251.974C-34.3046 250.343 -33.6725 248.245 -31.8611 247.292C37.8596 210.451 109.042 173.369 180.077 138.841C143.237 160.083 105.674 180.962 67.9376 201.532C89.0547 192.008 110.245 182.553 131.357 173.291C149.611 165.327 167.836 157.34 186.234 149.637L186.207 149.639ZM-4.12554 322.063C60.667 265.418 126.97 208.13 193.676 153.478C162.24 182.92 130.099 212.221 97.6955 241.295C114.229 228.344 130.784 215.479 147.079 202.945C164.055 189.921 181.03 176.886 198.214 164.081C165.939 191.879 133.159 219.159 100.247 246.3C68.8606 272.165 32.7008 301.492 0.884293 327.069C-2.98782 329.926 -7.53885 325.218 -4.14005 322.052L-4.12554 322.063Z" fill="url(#paint1_radial_5163_48921)"/>
<path d="M251.425 190.07C255.94 184.683 260.298 179.14 264.154 173.27C256.169 179.261 248.876 186.139 241.799 193.168C239.743 195.208 236.907 198.19 234.893 200.313C233.836 201.421 233.875 203.172 234.983 204.228C235.933 205.14 237.371 205.232 238.43 204.527C241.115 202.746 243.801 200.956 246.444 199.091C253.07 194.441 259.545 189.575 265.668 184.276C266.902 183.205 268.117 182.122 269.296 180.986C267.782 181.619 266.303 182.296 264.832 183.004C260.271 185.193 255.814 187.564 251.425 190.07ZM274.699 209.795C277.947 206.269 281.306 202.854 284.859 199.617C285.933 198.641 287.027 197.668 288.176 196.75C287.513 198.064 286.803 199.334 286.074 200.593C280.96 209.319 274.973 217.483 268.633 225.343C266.591 227.776 262.745 225.492 263.933 222.519C268.393 212.075 273.296 201.722 279.625 192.244C278.392 198.196 276.688 204.034 274.71 209.786L274.699 209.795ZM299.794 199.49C301.639 206.369 302.886 213.414 303.922 220.459C305.05 215.21 306.334 210.006 307.833 204.872C308.301 203.279 308.789 201.697 309.346 200.122C309.441 203.444 309.336 206.749 309.18 210.068C308.774 218.276 307.904 226.491 306.781 234.622L306.07 239.497C305.884 240.745 304.868 241.746 303.552 241.856C302.025 241.976 300.693 240.848 300.573 239.321C300.331 236.396 299.986 232.307 299.831 229.41C299.285 219.458 298.985 209.438 299.804 199.491L299.794 199.49ZM339.526 233.801C331.784 221.828 324.223 209.65 317.66 196.983C324.273 204.543 330.444 212.525 336.427 220.6C333.557 213.616 330.823 206.575 328.315 199.484C327.527 197.252 326.771 195.003 326.056 192.737C328.567 196.755 330.909 200.868 333.198 205.006C338.884 215.313 344.193 225.896 349.225 236.535L352.219 242.937C352.79 244.155 352.402 245.635 351.256 246.403C349.982 247.26 348.266 246.92 347.41 245.646C345.061 242.155 341.766 237.271 339.518 233.78L339.526 233.801ZM379.833 217.75C383.373 220.739 390.407 226.782 393.902 229.826C394.944 230.726 395.181 232.284 394.39 233.456C393.54 234.723 391.821 235.067 390.554 234.217C383.175 229.297 375.083 223.839 367.858 218.773C355.352 210.006 342.962 201.068 331.063 191.482C342.517 197.622 353.682 204.278 364.73 211.113C357.208 204.152 349.808 197.071 342.639 189.88C340.451 187.69 338.287 185.461 336.156 183.206C341.206 186.806 346.132 190.555 351.034 194.352C360.76 201.909 370.405 209.799 379.823 217.75H379.833ZM431.79 201.702L444.481 206.409C445.811 206.904 446.57 208.36 446.18 209.75C445.774 211.219 444.238 212.081 442.769 211.674C428.023 207.58 411.126 202.746 396.505 198.392C376.776 192.472 356.954 186.362 337.502 179.614C356.623 183.64 375.726 188.287 394.691 193.133C379.106 186.923 363.61 180.51 348.29 173.822C346.227 172.898 344.15 172.004 342.098 171.061C345.803 172.156 351.335 173.913 355.043 175.089C380.832 183.346 406.37 192.374 431.79 201.702ZM342.979 157.836C363.749 158.459 384.487 159.662 405.221 161.005C420.085 161.966 436.898 163.259 451.811 164.455L467.327 165.758C468.751 165.89 469.875 167.088 469.862 168.543C469.851 170.069 468.593 171.298 467.067 171.288C425.616 170.913 383.679 170.142 342.324 167.637C364.634 166.605 387.087 166.078 409.544 165.843C397.588 164.598 385.659 163.275 373.889 161.866C363.582 160.593 353.263 159.348 342.978 157.846L342.979 157.836ZM341.802 144.481C366.064 138.728 390.444 133.549 414.861 128.514C432.367 124.899 452.22 120.999 469.848 117.596L488.207 114.11C489.638 113.841 491.052 114.724 491.412 116.154C491.788 117.634 490.886 119.138 489.395 119.512C441.198 131.6 392.352 143.447 343.714 153.465C368.308 146.076 393.185 139.095 418.13 132.371C404.955 134.639 391.798 136.828 378.781 138.909C366.472 140.835 354.16 142.791 341.801 144.491L341.802 144.481ZM335.79 131.292C362.231 117.717 388.923 104.677 415.676 91.753C434.869 82.4894 456.67 72.1812 476.05 63.0753L496.242 53.6529C497.564 53.0419 499.164 53.5512 499.856 54.8605C500.575 56.2123 500.058 57.8919 498.717 58.6115C446.53 86.3886 393.245 114.315 340.13 140.189C367.749 124.081 395.882 108.272 424.141 92.736C408.361 99.8345 392.537 106.869 376.768 113.747C363.136 119.658 349.522 125.591 335.79 131.292ZM479.665 -2.58048C430.718 41.333 380.662 85.7265 330.342 127.977C354.118 105.087 378.425 82.3263 402.904 59.7625C390.443 69.7485 377.966 79.6829 365.696 89.3351C352.909 99.3714 340.12 109.418 327.179 119.269C351.544 97.7289 376.28 76.6249 401.107 55.6297C424.787 35.6332 452.048 12.9648 476.037 -6.79208C478.952 -8.99338 482.223 -5.05568 479.646 -2.59228L479.665 -2.58048Z" fill="url(#paint2_radial_5163_48921)"/>
</g>
</g>
</g>
<defs>
<radialGradient id="paint0_radial_5163_48921" cx="0" cy="0" r="1" gradientUnits="userSpaceOnUse" gradientTransform="translate(131.858 84.9403) rotate(103.492) scale(158.119 131.753)">
<stop stop-color="#F47920"/>
<stop offset="0.65" stop-color="#DC3069"/>
<stop offset="1" stop-color="#D20F8C"/>
</radialGradient>
<radialGradient id="paint1_radial_5163_48921" cx="0" cy="0" r="1" gradientUnits="userSpaceOnUse" gradientTransform="translate(164.525 159.165) rotate(106.401) scale(182.655 195.708)">
<stop stop-color="#F47920"/>
<stop offset="0.65" stop-color="#DC3069"/>
<stop offset="1" stop-color="#D20F8C"/>
</radialGradient>
<radialGradient id="paint2_radial_5163_48921" cx="0" cy="0" r="1" gradientUnits="userSpaceOnUse" gradientTransform="translate(352.045 124.231) rotate(-73.5118) scale(146.09 146.09)">
<stop offset="0.3" stop-color="#FDEE00"/>
<stop offset="0.36" stop-color="#F2EB06"/>
<stop offset="0.47" stop-color="#D5E416"/>
<stop offset="0.61" stop-color="#A6D831"/>
<stop offset="0.77" stop-color="#66C956"/>
<stop offset="0.96" stop-color="#14B585"/>
<stop offset="1" stop-color="#00B091"/>
</radialGradient>
<clipPath id="clip0_5163_48921">
<rect width="482" height="172" fill="white"/>
</clipPath>
<clipPath id="clip1_5163_48921">
<rect width="112" height="80" fill="white" transform="translate(0.5)"/>
</clipPath>
<clipPath id="clip2_5163_48921">
<rect width="495" height="80" fill="white" transform="translate(0 92)"/>
</clipPath>
</defs>
</svg>
